<?xml version="1.0" standalone="no"?><!DOCTYPE svg PUBLIC "-//W3C//DTD SVG 1.1//EN" "http://www.w3.org/Graphics/SVG/1.1/DTD/svg11.dtd"><svg t="1738578862998" class="icon" viewBox="0 0 1024 1024" version="1.1" xmlns="http://www.w3.org/2000/svg" p-id="5122" xmlns:xlink="http://www.w3.org/1999/xlink" width="200" height="200"><path d="M83.2 172.8C57.6 169.6 32 188.8 32 217.6v592c0 32 22.4 57.6 54.4 64l400 67.2L160 803.2c-22.4-9.6-38.4-32-38.4-57.6V217.6c0-22.4-16-41.6-38.4-44.8z m0 0" fill="#1062f5" p-id="5123"></path><path d="M483.2 937.6l-278.4-172.8c-19.2-12.8-28.8-32-28.8-54.4V131.2c0-35.2 38.4-57.6 70.4-38.4l217.6 134.4c12.8 9.6 22.4 22.4 22.4 38.4v672zM940.8 172.8c25.6-3.2 51.2 16 51.2 44.8v592c0 32-22.4 57.6-54.4 64l-400 67.2L864 803.2c22.4-9.6 38.4-32 38.4-57.6V217.6c0-22.4 16-41.6 38.4-44.8z m0 0" fill="#81aaf2" p-id="5124"></path><path d="M540.8 937.6l278.4-172.8c19.2-12.8 28.8-32 28.8-54.4V131.2c0-35.2-38.4-57.6-70.4-38.4l-217.6 134.4c-12.8 9.6-22.4 22.4-22.4 38.4l3.2 672z m0 0" fill="#1062f5" p-id="5125"></path></svg>